# xmcd CD database file
#
# Track frame offsets:
#	150
#	33004
#	63721
#	96077
#	127413
#	150475
#	172412
#	210507
#	239993
#
# Disc length: 3450 seconds
#
# Revision: 0
# Processed by: cddbd v1.5.2PL0 Copyright (c) Steve Scherf et al.
# Submitted via: CDex 1.70beta2
#
DISCID=860d7809
DTITLE=Tangerine Dream - Tyranny Of Beauty
DYEAR=1995
DGENRE=New Age
TTITLE0=Catwalk
TTITLE1=Birdwatcher's Dream
TTITLE2=Little Blond In The Park Of Attractions
TTITLE3=Living In A Fountain Pen
TTITLE4=Stratosfear 1995
TTITLE5=Bride In Cold Tears
TTITLE6=Haze Of Fame
TTITLE7=Tyranny Of Beauty
TTITLE8=Largo
EXTD=YEAR: 1995
EXTT0=
EXTT1=
EXTT2=
EXTT3=
EXTT4=
EXTT5=
EXTT6=
EXTT7=
EXTT8=
PLAYORDER=
